# xmcd
#
# Track frame offsets:
#	150
#	16331
#	40157
#	57613
#	81400
#	95038
#	112143
#	131562
#	148447
#	171403
#	184620
#	214158
#	229485
#	245782
#	267018
#	285968
#	297957
#
# Disc length: 4183 seconds
#
# Revision: 2
# Processed by: cddbd v1.5.2PL0 Copyright (c) Steve Scherf et al.
# Submitted via: dBpowerAMP V4.0
#
DISCID=12105511
DTITLE=Various Artist - Grandes Exitos A nuestro Estilo
DYEAR=2005
DGENRE=Rock
TTITLE0=Interpuesto - Volvere
TTITLE1=Liran Roll - Pianista
TTITLE2=Toma II - Como Yo Nadie Te Ha Amado
TTITLE3=Isis - Pequeña Y Fragil
TTITLE4=California Blues - Y Como es El
TTITLE5=Haragan Y Cia - En Un Instante
TTITLE6=Brebaje Extraño - Amiga
TTITLE7=Javier Batiz - La Casa Del Sol Naciente
TTITLE8=3 Vallejo - Loco Tu Forma de Ser
TTITLE9=Especimen - Reloj
TTITLE10=Heavy Nopal - Hotel California
TTITLE11=¨Pacheco Blues - Dulce Caroline
TTITLE12=Graffit 3X - No Volvere
TTITLE13=Barrio Pobre - Toda La Noche
TTITLE14=Monroy Blues - Duele Tu Amor
TTITLE15=Caneza Band - Prendedor
TTITLE16=Sagrario Bello - Nunca Te Cases Con Un Ferrocarrilero
EXTD=YXE&JAV
EXTT0=
EXTT1=
EXTT2=
EXTT3=
EXTT4=
EXTT5=
EXTT6=
EXTT7=
EXTT8=
EXTT9=
EXTT10=
EXTT11=
EXTT12=
EXTT13=
EXTT14=
EXTT15=
EXTT16=
PLAYORDER=
